<svg xmlns="http://www.w3.org/2000/svg" width="512" height="512" viewBox="0 0 2000 2000">
  <defs>
    <style>
      .cls-1 {
        fill: #e7d1a7;
        fill-rule: evenodd;
      }
    </style>
  </defs>
  <path id="HW_Logo_1" data-name="HW Logo 1" class="cls-1" d="M1048.61,0.561c134.48,1.731,251.07,39.322,348.35,81.066,206.16,88.459,360.27,231.917,470.47,416.337,24.06,40.253,41.74,83.892,62.07,128.1q-19.02,21.015-38.04,42.034l-93.1,120.1c-92.54,131.012-171.79,278-239.24,433.352Q1495.07,1376.665,1431,1531.8q-15.015,45.525-30.03,91.07-5.505,22.515-11.02,45.04v-2c-10.67-10.55-15.63-27.24-22.02-42.04-25.09-58.13-39.89-123.75-57.05-191.15-16.03-62.92-28.65-126.04-44.05-191.15q-7.5-35.025-15.01-70.06,50.04-83.565,100.1-167.14c79.87-127.91,158.17-256.392,236.23-384.308-0.33-.333-0.66-0.667-1-1-119.28,47.707-211.09,171.188-281.28,270.219q-27.03,40.529-54.05,81.066-13.515,20.514-27.03,41.034h-1q-10.515-142.1-21.02-284.231c-5.95-36.8,7.42-68.548-30.03-75.061-9.28-1.614-20.54-3.711-27.03,0-7.6,16.647-19.75,31.077-26.03,51.041-21.99,69.931-25.4,215.268-11.01,299.241q12.51,90.57,25.03,181.15-16.02,28.02-32.03,56.04c-19.88,34.01-33.26,71.79-49.05,109.09q-13.02,33.525-26.03,67.06h-1q-5.01-78.555-10.01-157.13-2.505-44.535-5.01-89.07c-10.18-65.9-6.87-139.5-7-210.173l57.05-8.007c-0.66-1-1.33-2-2-3-18.43-7.125-34.24-20.2-56.05-25.02,0.74-83.26-7.594-153.11-20.024-218.177q-0.5,1-1,2c-21.289,29.761-37.146,87.247-47.047,127.1q-4.5,32.523-9.009,65.052l-25.025-7.006c-25.139-7.688-53.808-13.547-82.083-18.014v-1q69.063-245.675,138.139-491.4c24.3-80.819,42.478-164.062,64.06-249.2Q1034.605,66.621,1048.61.561Zm-118.116,1h17.017Q875.445,256.744,803.366,511.975l-95.1,349.282-300.3-6v-1c72.339-191.1,140.284-376.736,203.2-578.468Q643.7,164.7,676.239,53.6C727.382,34.752,783.8,23.319,842.405,11.57Zm-400.4,115.093h2q-34.532,84.559-69.069,169.137L332.894,626.067Q285.853,743.651,238.8,861.257c-80.394,15.648-169.406,33.45-235.236,66.054-1.451-79.278,23.218-163.7,43.043-226.183C107.864,508.061,221,339.1,363.926,227.745c32.845-25.59,66.42-51.6,102.1-74.06ZM919.483,956.334q1,78.549,2,157.126,1.5,52.035,3,104.09,3.5,63.045,7.007,126.1,5.5,76.05,11.011,152.12c8.026,48.99,2.84,156.2,32.032,179.15,33.422,26.26,63.7-11.91,76.072-33.03,36.22-61.81,52.03-140.3,79.08-210.17,7.41-19.13,34.17-68.67,35.04-85.07,9.02,4.56,9.08,27.41,12.01,38.03q15.015,57.54,30.03,115.09c30.95,103.27,63.67,203.58,104.11,295.24,8.76,19.87,40.89,88.06,55.05,97.08q13,2.01,26.03,4c33.58,5.71,46.42-12.22,57.05-33.02,36.68-71.76,52.19-160.68,77.08-244.2,75.75-254.2,176.16-486.16,300.3-693.561,31.08-51.925,62.47-101.834,94.1-152.123q19.515-31.022,39.04-62.05,10.5,40.529,21.02,81.066c9.89,39.452,10.83,81.556,18.01,124.1,5.53,32.7,7.6,80.2,2.01,114.088q-2.5,42.03-5.01,84.07c-11.86,66.03-22.06,127.33-40.04,184.15-100.83,318.64-316.88,525.84-619.62,643.52-184.11,71.57-438.248,73.77-633.635,12.01-38.286-12.1-104.291-30.35-132.133-52.04q25.023-111.585,50.05-223.18c45.046-176.98,77.274-358.08,128.129-528.43q25.522-100.065,51.051-200.161Zm-560.563-7,319.321,6q-32.531,128.1-65.066,256.207-39.034,207.15-78.078,414.34c-15.577,71.52-38.163,157.52-41.041,235.19-24.463-5.57-70.769-45.11-91.091-60.05a941.878,941.878,0,0,1-203.2-203.17c-14.425-19.66-64.579-81.09-67.067-105.08Q245.8,1221.075,358.92,949.329ZM0.561,974.349c65.04-4.091,132.837-17.615,206.207-18.015q-19.518,56.541-39.039,113.1-31.529,97.56-63.063,195.15c-6.639,18.61-25.915,98.36-34.035,105.09Q52.615,1315.625,34.6,1261.58C9.616,1176.75,1.8,1083.1.561,974.349Z"/>
</svg>
