<svg id="visual" viewBox="0 0 3000 1000" width="3000" height="1000" xmlns="http://www.w3.org/2000/svg" xmlns:xlink="http://www.w3.org/1999/xlink" version="1.1"><path d="M0 531L273 501L545 538L818 708L1091 658L1364 579L1636 635L1909 492L2182 667L2455 688L2727 635L3000 672L3000 1001L2727 1001L2455 1001L2182 1001L1909 1001L1636 1001L1364 1001L1091 1001L818 1001L545 1001L273 1001L0 1001Z" fill="#f5730a"></path><path d="M0 746L273 610L545 721L818 655L1091 677L1364 640L1636 565L1909 655L2182 652L2455 612L2727 594L3000 719L3000 1001L2727 1001L2455 1001L2182 1001L1909 1001L1636 1001L1364 1001L1091 1001L818 1001L545 1001L273 1001L0 1001Z" fill="#df6009"></path><path d="M0 703L273 730L545 723L818 720L1091 732L1364 690L1636 784L1909 775L2182 653L2455 644L2727 676L3000 725L3000 1001L2727 1001L2455 1001L2182 1001L1909 1001L1636 1001L1364 1001L1091 1001L818 1001L545 1001L273 1001L0 1001Z" fill="#c94d08"></path><path d="M0 718L273 820L545 753L818 761L1091 745L1364 728L1636 748L1909 830L2182 822L2455 808L2727 847L3000 710L3000 1001L2727 1001L2455 1001L2182 1001L1909 1001L1636 1001L1364 1001L1091 1001L818 1001L545 1001L273 1001L0 1001Z" fill="#b33b06"></path><path d="M0 851L273 860L545 894L818 809L1091 784L1364 858L1636 894L1909 855L2182 872L2455 836L2727 884L3000 822L3000 1001L2727 1001L2455 1001L2182 1001L1909 1001L1636 1001L1364 1001L1091 1001L818 1001L545 1001L273 1001L0 1001Z" fill="#9d2804"></path><path d="M0 893L273 895L545 898L818 869L1091 931L1364 862L1636 914L1909 901L2182 909L2455 873L2727 867L3000 859L3000 1001L2727 1001L2455 1001L2182 1001L1909 1001L1636 1001L1364 1001L1091 1001L818 1001L545 1001L273 1001L0 1001Z" fill="#871400"></path></svg>