<svg id="visual" viewBox="0 0 3000 1000" width="3000" height="1000" xmlns="http://www.w3.org/2000/svg" xmlns:xlink="http://www.w3.org/1999/xlink" version="1.1"><rect x="0" y="0" width="3000" height="1000" fill="#11191f"></rect><path d="M0 622L429 711L857 698L1286 690L1714 669L2143 614L2571 677L3000 644L3000 1001L2571 1001L2143 1001L1714 1001L1286 1001L857 1001L429 1001L0 1001Z" fill="#f5730a"></path><path d="M0 742L429 749L857 687L1286 719L1714 704L2143 724L2571 701L3000 719L3000 1001L2571 1001L2143 1001L1714 1001L1286 1001L857 1001L429 1001L0 1001Z" fill="#da5b09"></path><path d="M0 797L429 820L857 803L1286 807L1714 844L2143 803L2571 827L3000 788L3000 1001L2571 1001L2143 1001L1714 1001L1286 1001L857 1001L429 1001L0 1001Z" fill="#be4407"></path><path d="M0 808L429 876L857 887L1286 899L1714 821L2143 855L2571 886L3000 833L3000 1001L2571 1001L2143 1001L1714 1001L1286 1001L857 1001L429 1001L0 1001Z" fill="#a32d04"></path><path d="M0 915L429 943L857 938L1286 884L1714 953L2143 898L2571 954L3000 954L3000 1001L2571 1001L2143 1001L1714 1001L1286 1001L857 1001L429 1001L0 1001Z" fill="#871400"></path></svg>